<svg xmlns="http://www.w3.org/2000/svg">
    <symbol viewBox="0 0 128 128" id="fb">
        <g id="_x31__stroke"><g id="Facebook_1_"><rect fill="none" height="128" width="128"/><path clip-rule="evenodd" d="M68.369,128H7.065C3.162,128,0,124.836,0,120.935    V7.065C0,3.162,3.162,0,7.065,0h113.871C124.837,0,128,3.162,128,7.065v113.87c0,3.902-3.163,7.065-7.064,7.065H88.318V78.431    h16.638l2.491-19.318H88.318V46.78c0-5.593,1.553-9.404,9.573-9.404l10.229-0.004V20.094c-1.769-0.235-7.841-0.761-14.906-0.761    c-14.749,0-24.846,9.003-24.846,25.535v14.246H51.688v19.318h16.681V128z"  fill-rule="evenodd" id="Facebook"/></g></g>
    </symbol>
    <symbol viewBox="0 0 512 512" id="inst">
        <g><path d="M505,257c0,34.8-0.7,69.7,0.2,104.5c1.5,61.6-37.2,109.2-86.5,130.4c-19.8,8.5-40.6,13-62.1,13c-67.3,0.1-134.7,1-202-0.3   c-50.7-1-92.4-22.2-122.3-64c-15.7-22-23.2-47-23.2-74.1c0-71.7,0-143.3,0-215c0-58.5,28.5-99.4,79.1-126C110.2,14,134.1,9.1,159,9   c65.3,0,130.7-0.4,196,0.2c50.7,0.4,93,19.8,124.2,60.6c17.4,22.8,25.8,49,25.8,77.8C505,184,505,220.5,505,257z M46,257   c0,36.7,0,73.3,0,110c0,16.4,3.8,31.8,12.3,45.7c22.3,36.5,56,54.3,97.8,55c67.1,1,134.3,0.4,201.5,0.2c16.5,0,32.5-3.4,47.4-10.5   c40.6-19.4,63.3-50.3,63.1-96.7c-0.4-71-0.1-142-0.1-213c0-20.1-5.7-38.5-17.6-54.7c-23-31.1-54.8-46.4-92.8-46.8   c-67-0.8-134-0.3-201-0.2c-14.3,0-28.1,2.9-41.5,7.9c-36.8,13.7-71,48.4-69.4,99.5C46.9,188,46,222.5,46,257z"/><path d="M257.6,363c-64.5,0-116.5-51.4-116.6-115.4c-0.1-63,52.3-114.6,116.4-114.6c64.3-0.1,116.5,51.4,116.6,114.9   C374,311.3,321.9,362.9,257.6,363z M257.6,326c43.9,0,79.5-35.1,79.4-78.3c-0.1-42.8-35.7-77.8-79.4-77.8   c-43.9,0-79.7,34.9-79.7,78C178,291.1,213.7,326.1,257.6,326z"/><path d="M387.5,98c13.5,0,24.5,11.5,24.5,25.6c-0.1,14.1-11.2,25.5-24.7,25.4c-13.3-0.1-24.2-11.5-24.2-25.3   C363,109.6,374,98,387.5,98z"/></g>
    </symbol>
    <symbol viewBox="0 0 64 64" id="vk">
        <g id="guidlines"/><g id="FB"/><g id="ig"/><g id="yt"/><g id="twitter"/><g id="snapchat"/><g id="WA"/><g id="Pinterrest"/><g id="Layer_9"/><g id="Layer_10"/><g id="Layer_11"><path class="st13" d="M4,13.9c2.1,0,5.3,0,7.1,0c0.9,0,1.6,0.6,1.9,1.4c0.9,2.6,2.9,8.3,5.2,12.2c3.1,5.1,5.1,7,6.4,6.8   c1.3-0.3,0.9-3.7,0.9-6.4s0.3-7.3-1-9.4l-2-2.9c-0.5-0.7,0-1.6,0.8-1.6h11.4c1.1,0,2,0.9,2,2v14.5c0,0,0.5,2.6,3.3-0.1   c2.8-2.7,5.8-7.7,8.3-12.8l1-2.4c0.3-0.7,1-1.2,1.8-1.2h7.4c1.4,0,2.4,1.4,1.9,2.7l-0.8,2.1c0,0-2.7,5.4-5.5,9.2   c-2.8,3.9-3.4,4.8-3,5.8c0.4,1,7.6,7.7,9.4,10.9c0.5,0.9,0.9,1.7,1.3,2.4c0.7,1.3-0.3,3-1.8,3l-8.4,0c-0.7,0-1.4-0.4-1.7-1   l-0.8-1.3c0,0-5.1-6-8.2-7.9c-3.2-1.8-3.1,0.8-3.1,0.8v5.3c0,2.2-1.8,4-4,4h-2c0,0-11,0-19.8-13.1C5.1,26.7,2.8,20.1,2,16.3   C1.8,15.1,2.7,13.9,4,13.9z"/></g><g id="Layer_12"/><g id="Layer_13"/><g id="Layer_14"/><g id="Layer_15"/><g id="Layer_16"/><g id="Layer_17"/>
    </symbol>
    <symbol viewBox="0 0 438.549 438.549" id="git">
        <g>
        <path d="M409.132,114.573c-19.608-33.596-46.205-60.194-79.798-79.8C295.736,15.166,259.057,5.365,219.271,5.365
            c-39.781,0-76.472,9.804-110.063,29.408c-33.596,19.605-60.192,46.204-79.8,79.8C9.803,148.168,0,184.854,0,224.63
            c0,47.78,13.94,90.745,41.827,128.906c27.884,38.164,63.906,64.572,108.063,79.227c5.14,0.954,8.945,0.283,11.419-1.996
            c2.475-2.282,3.711-5.14,3.711-8.562c0-0.571-0.049-5.708-0.144-15.417c-0.098-9.709-0.144-18.179-0.144-25.406l-6.567,1.136
            c-4.187,0.767-9.469,1.092-15.846,1c-6.374-0.089-12.991-0.757-19.842-1.999c-6.854-1.231-13.229-4.086-19.13-8.559
            c-5.898-4.473-10.085-10.328-12.56-17.556l-2.855-6.57c-1.903-4.374-4.899-9.233-8.992-14.559
            c-4.093-5.331-8.232-8.945-12.419-10.848l-1.999-1.431c-1.332-0.951-2.568-2.098-3.711-3.429c-1.142-1.331-1.997-2.663-2.568-3.997
            c-0.572-1.335-0.098-2.43,1.427-3.289c1.525-0.859,4.281-1.276,8.28-1.276l5.708,0.853c3.807,0.763,8.516,3.042,14.133,6.851
            c5.614,3.806,10.229,8.754,13.846,14.842c4.38,7.806,9.657,13.754,15.846,17.847c6.184,4.093,12.419,6.136,18.699,6.136
            c6.28,0,11.704-0.476,16.274-1.423c4.565-0.952,8.848-2.383,12.847-4.285c1.713-12.758,6.377-22.559,13.988-29.41
            c-10.848-1.14-20.601-2.857-29.264-5.14c-8.658-2.286-17.605-5.996-26.835-11.14c-9.235-5.137-16.896-11.516-22.985-19.126
            c-6.09-7.614-11.088-17.61-14.987-29.979c-3.901-12.374-5.852-26.648-5.852-42.826c0-23.035,7.52-42.637,22.557-58.817
            c-7.044-17.318-6.379-36.732,1.997-58.24c5.52-1.715,13.706-0.428,24.554,3.853c10.85,4.283,18.794,7.952,23.84,10.994
            c5.046,3.041,9.089,5.618,12.135,7.708c17.705-4.947,35.976-7.421,54.818-7.421s37.117,2.474,54.823,7.421l10.849-6.849
            c7.419-4.57,16.18-8.758,26.262-12.565c10.088-3.805,17.802-4.853,23.134-3.138c8.562,21.509,9.325,40.922,2.279,58.24
            c15.036,16.18,22.559,35.787,22.559,58.817c0,16.178-1.958,30.497-5.853,42.966c-3.9,12.471-8.941,22.457-15.125,29.979
            c-6.191,7.521-13.901,13.85-23.131,18.986c-9.232,5.14-18.182,8.85-26.84,11.136c-8.662,2.286-18.415,4.004-29.263,5.146
            c9.894,8.562,14.842,22.077,14.842,40.539v60.237c0,3.422,1.19,6.279,3.572,8.562c2.379,2.279,6.136,2.95,11.276,1.995
            c44.163-14.653,80.185-41.062,108.068-79.226c27.88-38.161,41.825-81.126,41.825-128.906
            C438.536,184.851,428.728,148.168,409.132,114.573z"/>
        </g>
    <symbol>
</svg>